<?xml version="1.0" standalone="no"?><!DOCTYPE svg PUBLIC "-//W3C//DTD SVG 1.1//EN" "http://www.w3.org/Graphics/SVG/1.1/DTD/svg11.dtd"><svg t="1661059123362" class="icon" viewBox="0 0 1024 1024" version="1.1" xmlns="http://www.w3.org/2000/svg" p-id="26161" width="32" height="32" xmlns:xlink="http://www.w3.org/1999/xlink"><defs><style type="text/css">@font-face { font-family: feedback-iconfont; src: url("//at.alicdn.com/t/font_1031158_u69w8yhxdu.woff2?t=1630033759944") format("woff2"), url("//at.alicdn.com/t/font_1031158_u69w8yhxdu.woff?t=1630033759944") format("woff"), url("//at.alicdn.com/t/font_1031158_u69w8yhxdu.ttf?t=1630033759944") format("truetype"); }
</style></defs><path d="M671.2 886.4L512 973.6l-165.6-90.4c-8-4-17.6-1.6-21.6 6.4s-1.6 17.6 6.4 21.6L504 1006.4c2.4 1.6 4.8 1.6 8 1.6s5.6-0.8 8-1.6l167.2-91.2c8-4 10.4-13.6 6.4-21.6-4.8-8-14.4-11.2-22.4-7.2zM260 836.8L88 742.4V541.6c0-8.8-7.2-16-16-16s-16 7.2-16 16V752c0 5.6 3.2 11.2 8 14.4l180.8 98.4c2.4 1.6 4.8 1.6 8 1.6 5.6 0 11.2-3.2 14.4-8 3.2-8 0.8-17.6-7.2-21.6zM960 257.6l-176-96c-8-4-17.6-1.6-21.6 6.4s-1.6 17.6 6.4 21.6l168 91.2v164.8c0 8.8 7.2 16 16 16s16-7.2 16-16V272c-0.8-5.6-4-11.2-8.8-14.4zM952 529.6c-8.8 0-16 7.2-16 16v196.8l-169.6 92.8c-8 4-10.4 13.6-6.4 21.6 3.2 5.6 8 8 14.4 8 2.4 0 5.6-0.8 8-1.6L960 766.4c4.8-3.2 8-8 8-14.4V545.6c0-8.8-7.2-16-16-16zM246.4 158.4L64 257.6c-4.8 3.2-8 8-8 14.4v180c0 8.8 7.2 16 16 16s16-7.2 16-16V281.6l174.4-95.2c8-4 10.4-13.6 6.4-21.6-4.8-8-14.4-10.4-22.4-6.4zM689.6 110.4L519.2 17.6c-4.8-2.4-10.4-2.4-15.2 0L331.2 112c-8 4-10.4 13.6-6.4 21.6 3.2 5.6 8 8 14.4 8 2.4 0 5.6-0.8 8-1.6L512 50.4l162.4 88.8c8 4 17.6 1.6 21.6-6.4 4.8-8 1.6-17.6-6.4-22.4z" fill="#485078" p-id="26162"></path><path d="M601.6 553.6l-86.4-35.2L448 560l91.2 32.8z" fill="#485078" p-id="26163"></path><path d="M604.8 564l-61.6 40-2.4 94.4 62.4-39.2zM617.6 545.6l67.2-47.2V408.8l-64.8 44.8z" fill="#485078" p-id="26164"></path><path d="M508.8 420l-64.8 44.8L440 552l67.2-43.2z" fill="#485078" p-id="26165"></path><path d="M524.8 409.6l89.6 34.4 68-44-96-32zM620 557.6V648l68-48-3.2-90.4zM434.4 658.4l97.6 39.2V604l-94.4-35.2z" fill="#485078" p-id="26166"></path><path d="M612 455.2L520 420v88L608 544z" fill="#485078" p-id="26167"></path><path d="M329.6 612.8l89.6 40.8 3.2-88.8-88.8-35.2zM348 417.6l89.6 37.6 66.4-41.6-95.2-33.6zM422.4 370.4l87.2 33.6 64-40.8-92.8-28zM336 516L424 552l4-88.8-88-35.2z" fill="#485078" p-id="26168"></path></svg>