<?xml version="1.0" standalone="no"?><!DOCTYPE svg PUBLIC "-//W3C//DTD SVG 1.1//EN" "http://www.w3.org/Graphics/SVG/1.1/DTD/svg11.dtd"><svg t="1661270444119" class="icon" viewBox="0 0 1024 1024" version="1.1" xmlns="http://www.w3.org/2000/svg" p-id="8009" width="16" height="16" xmlns:xlink="http://www.w3.org/1999/xlink"><defs><style type="text/css">@font-face { font-family: feedback-iconfont; src: url("//at.alicdn.com/t/font_1031158_u69w8yhxdu.woff2?t=1630033759944") format("woff2"), url("//at.alicdn.com/t/font_1031158_u69w8yhxdu.woff?t=1630033759944") format("woff"), url("//at.alicdn.com/t/font_1031158_u69w8yhxdu.ttf?t=1630033759944") format("truetype"); }
</style></defs><path d="M764.282158 584.080616a29.439241 29.439241 0 0 0-37.937167 16.085359 221.780676 221.780676 0 0 1-426.565501-81.94428 215.483106 215.483106 0 0 1 37.937167-122.157676 222.918791 222.918791 0 0 1 367.231772 0 228.229994 228.229994 0 0 1 21.624185 40.213397 29.59099 29.59099 0 0 0 37.937167 16.009484 29.287493 29.287493 0 0 0 16.161233-37.937167 281.417902 281.417902 0 0 0-491.817428-50.835803 274.437463 274.437463 0 0 0-47.724955 155.087137 280.735033 280.735033 0 0 0 539.618257 104.023711 29.211618 29.211618 0 0 0-16.009484-37.937167" p-id="8010" fill="#e6e6e6"></path><path d="M899.110848 573.761707a26.252519 26.252519 0 0 0-14.719621 11.229401 25.797273 25.797273 0 0 0-5.690575 10.85003 365.866034 365.866034 0 0 1-49.925311 116.770599 26.480142 26.480142 0 0 0 1.820984 31.108476l38.468287 66.465916-57.816242 57.892116-69.273266-39.909899a26.252519 26.252519 0 0 0-20.637819-2.503853 25.493776 25.493776 0 0 0-13.278008 3.414345 372.61885 372.61885 0 0 1-111.231773 44.007113 27.163011 27.163011 0 0 0-22.762299 19.575578l-20.637819 77.088323H471.407232l-20.713693-77.315946a26.78364 26.78364 0 0 0-22.7623-19.575578 373.14997 373.14997 0 0 1-115.253112-48.635447 27.390634 27.390634 0 0 0-4.931832-1.820984 20.182573 20.182573 0 0 0-2.959099-1.213989 25.114404 25.114404 0 0 0-8.573799-0.606995h-1.21399a25.266153 25.266153 0 0 0-12.746888 5.007706l-66.238293 37.937166-58.043864-57.816241 40.441019-69.728513a26.404268 26.404268 0 0 0-3.186722-30.880853 2.959099 2.959099 0 0 1-0.455246-1.138115 364.652045 364.652045 0 0 1-44.386485-108.045051 31.563723 31.563723 0 0 0-1.669235-3.641968 26.556017 26.556017 0 0 0-18.968583-18.513337l-75.874333-20.637818V470.724363l75.874333-20.637819a26.78364 26.78364 0 0 0 19.575578-22.7623c0-0.606995 0.758743-0.834618 0.910492-1.517486a367.687018 367.687018 0 0 1 47.952578-112.294013 147.196206 147.196206 0 0 0 4.097214-9.711915v-1.669235a25.797273 25.797273 0 0 0-2.80735-17.754594l-39.985774-69.121518 57.967991-57.892116 69.804386 40.441019a25.721399 25.721399 0 0 0 27.694132-0.986366c1.441612-0.606995 2.959099 0 4.400711-1.213989a373.14997 373.14997 0 0 1 110.397155-44.841731 26.935388 26.935388 0 0 0 7.739182-3.641968 23.976289 23.976289 0 0 0 6.82869-5.842324 22.003557 22.003557 0 0 0 2.579727-3.945465c1.213989-1.896858 3.110848-3.110848 3.793717-5.462952l20.713693-77.771191h81.868405l20.789568 76.633076c0.606995 2.427979 2.731476 3.717842 3.793716 5.766449a28.528749 28.528749 0 0 0 2.427979 3.49022 24.279787 24.279787 0 0 0 7.587433 6.525192 28.983995 28.983995 0 0 0 7.587433 3.49022 369.128631 369.128631 0 0 1 116.998222 47.421458c0.758743 0.455246 1.74511 0 2.579727 0.682869a25.949022 25.949022 0 0 0 27.466509 0.758743l69.804387-40.365145 57.664493 57.816242-39.834025 69.121517a26.328394 26.328394 0 0 0-0.606995 24.583284 28.073503 28.073503 0 0 0 2.503853 5.76645 369.887374 369.887374 0 0 1 46.510966 110.169531c0 1.593361 1.820984 2.427979 2.427979 3.793717a26.480142 26.480142 0 0 0 18.513337 20.48607l70.56313 20.48607v82.551274l-70.56313 20.48607z m124.282157-118.515708a16.085359 16.085359 0 0 0-0.606994-2.883225 26.404268 26.404268 0 0 0-18.816835-27.618257l-77.240071-22.458803a417.308832 417.308832 0 0 0-42.944873-102.354475l43.096622-74.660344a26.404268 26.404268 0 0 0-5.994073-33.232958c-0.606995-0.682869-0.910492-1.669235-1.669235-2.427978L838.866627 109.334914a30.349733 30.349733 0 0 0-2.579727-1.669235 26.480142 26.480142 0 0 0-33.157084-5.918198l-75.343213 43.551867a426.262004 426.262004 0 0 0-106.224066-43.096621L599.786603 19.879075A26.404268 26.404268 0 0 0 571.940723 0.606995a16.768228 16.768228 0 0 0-2.80735-0.606995h-113.8115a23.824541 23.824541 0 0 0-3.034973 0.606995 26.707765 26.707765 0 0 0-27.542383 19.27208l-22.079431 83.461767a423.682276 423.682276 0 0 0-100.836989 41.351511l-75.874333-43.77949a26.631891 26.631891 0 0 0-33.232958 5.918198 10.318909 10.318909 0 0 0-2.503853 1.669235L110.093657 188.547718a18.513337 18.513337 0 0 0-1.745109 2.503853 26.404268 26.404268 0 0 0-5.918198 33.232958l43.020747 74.432721a417.308832 417.308832 0 0 0-43.703616 103.568464L20.182573 424.44102a26.404268 26.404268 0 0 0-19.575578 27.921754c0 0.986366-0.606995 1.896858-0.606995 2.959099v113.8115c0 0.986366 0.53112 1.896858 0.606995 2.959099a26.631891 26.631891 0 0 0 19.575578 27.087137l81.868405 22.231179a424.896266 424.896266 0 0 0 41.958506 100.912863l-43.020747 74.05335a26.404268 26.404268 0 0 0 5.918198 33.081209 18.665086 18.665086 0 0 0 1.669236 2.579727l80.350919 80.350919a35.812685 35.812685 0 0 0 4.021339 2.503853 26.176645 26.176645 0 0 0 18.361589 8.649674 26.859514 26.859514 0 0 0 13.353882-3.566094l74.129224-42.717249a426.413752 426.413752 0 0 0 103.871962 43.324244l22.079431 83.461766a26.859514 26.859514 0 0 0 25.949022 19.95495 19.95495 19.95495 0 0 0 2.959099-0.455246 15.174867 15.174867 0 0 0 1.745109 0.455246h113.8115a17.223474 17.223474 0 0 0 1.896859-0.455246 18.058091 18.058091 0 0 0 2.80735 0.455246 26.935388 26.935388 0 0 0 25.873147-19.879075l22.155306-82.171903a427.475993 427.475993 0 0 0 103.113218-41.351512l77.315946 44.538234a25.03853 25.03853 0 0 0 31.791345-5.08358 20.941316 20.941316 0 0 0 3.793717-2.579728l80.426793-80.275044c0.834618-0.758743 1.062241-1.669235 1.74511-2.352105a26.480142 26.480142 0 0 0 5.842324-33.384706l-43.703616-75.950208a419.281565 419.281565 0 0 0 44.234736-104.251333l77.467694-22.7623a26.328394 26.328394 0 0 0 18.816835-27.542383 19.499704 19.499704 0 0 0 0.606994-2.883225v-113.8115z" p-id="8011" fill="#e6e6e6"></path></svg>